<?xml version="1.0" encoding="utf-8"?>
<!-- Generator: Adobe Illustrator 22.1.0, SVG Export Plug-In . SVG Version: 6.00 Build 0)  -->
<svg version="1.1" id="Layer_1" xmlns="http://www.w3.org/2000/svg" xmlns:xlink="http://www.w3.org/1999/xlink" x="0px" y="0px"
	 viewBox="0 0 126 111" style="enable-background:new 0 0 126 111;" xml:space="preserve">
<style type="text/css">
	.st0{enable-background:new    ;}
	.st1{fill:#ACC924;}
</style>
<g class="st0">
	<path class="st1" d="M114.5,13.8c2.9,0,5.3,1,7.4,3s3,4.5,3,7.4v62.4c0,2.9-1,5.3-3,7.4s-4.5,3-7.4,3h-2.6c-2.9,0-5.3-1-7.4-3
		L83.2,72.7v13.9c0,2.9-1,5.3-3,7.4s-4.5,3-7.4,3H10.4c-2.9,0-5.3-1-7.4-3s-3-4.5-3-7.4V24.2c0-2.9,1-5.3,3-7.4s4.5-3,7.4-3h62.4
		c2.9,0,5.3,1,7.4,3s3,4.5,3,7.4V38l21.2-21.2c2-2,4.5-3,7.4-3H114.5z M72.8,86.6V24.2H10.4v62.4H72.8z M114.5,86.6V24.2h-2.6
		L83.2,52.8V58l28.6,28.6H114.5z"/>
</g>
</svg>
