<svg xmlns="http://www.w3.org/2000/svg" viewBox="0 0 355.44 275.73"><defs><style>.cls-1{fill:#acc937;}.cls-2{isolation:isolate;}</style></defs><title>icongroup_1</title><g id="Layer_2" data-name="Layer 2"><g id="Layer_1-2" data-name="Layer 1"><path class="cls-1" d="M331.67,79.41a33.84,33.84,0,0,1,0-47.87l0,0,4.17-4.17a2.58,2.58,0,0,0,0-3.67L331,18.78a2.6,2.6,0,0,0-3.68,0L323.11,23a33.86,33.86,0,0,1-47.88,0l0,0L271,18.78a2.61,2.61,0,0,0-3.68,0l-4.88,4.89a2.6,2.6,0,0,0,0,3.68l4.17,4.17a33.85,33.85,0,0,1,0,47.88l0,0-4.17,4.17a2.6,2.6,0,0,0,0,3.68l4.88,4.88a2.6,2.6,0,0,0,3.68,0L275.21,88a33.85,33.85,0,0,1,47.88,0l0,0,4.18,4.17a2.58,2.58,0,0,0,3.67,0l4.89-4.88a2.61,2.61,0,0,0,0-3.68Zm-33.49-16.6a8.54,8.54,0,1,1,8.54-8.54A8.54,8.54,0,0,1,298.18,62.81Z"/><path class="cls-1" d="M272.42,48.9a33.45,33.45,0,0,0-3.69-8.37,15.68,15.68,0,1,1,15.71-15.67c0,.26,0,.52,0,.78a33.75,33.75,0,0,0,8.3,3.46,25.12,25.12,0,0,0,.37-4.24,24.33,24.33,0,1,0-24.33,24.32h0A21.3,21.3,0,0,0,272.42,48.9Z"/><path class="cls-1" d="M325.44,61.14a33.16,33.16,0,0,0,3.7,8.37,15.68,15.68,0,1,1-15.72,15.68,6.78,6.78,0,0,1,0-.78,33.37,33.37,0,0,0-8.3-3.46,24.33,24.33,0,1,0,24-20.09h0A23.55,23.55,0,0,0,325.44,61.14Z"/><path class="cls-1" d="M292.81,81.53a33.26,33.26,0,0,0-8.36,3.7,15.68,15.68,0,1,1-15.68-15.72,6.78,6.78,0,0,1,.78,0,33.75,33.75,0,0,0,3.46-8.3,25.13,25.13,0,0,0-4.24-.38,24.33,24.33,0,1,0,24.32,24.33h0A21.33,21.33,0,0,0,292.81,81.53Z"/><path class="cls-1" d="M305.49,28.51a32.9,32.9,0,0,0,8.36-3.7,15.68,15.68,0,1,1,15.68,15.72c-.26,0-.52,0-.78,0a33.75,33.75,0,0,0-3.46,8.3,25.12,25.12,0,0,0,4.24.37A24.33,24.33,0,1,0,305.2,24.85h0A22.28,22.28,0,0,0,305.49,28.51Z"/><g class="cls-2"><g class="cls-2"><path class="cls-1" d="M355.44,265.33A10.36,10.36,0,0,1,345,275.73H254.84a10.35,10.35,0,0,1-10.4-10.4V202.89a10.36,10.36,0,0,1,10.4-10.41h29.49l7.37-9.75a9.68,9.68,0,0,1,8.24-4.12H345A10.36,10.36,0,0,1,355.44,189ZM252.67,189a1.57,1.57,0,0,1-1.3-1.31v-7.8a1.26,1.26,0,0,1,.44-.87,1.24,1.24,0,0,1,.86-.43h25.15a1.51,1.51,0,0,1,1.3,1.3v7.8a1.25,1.25,0,0,1-.43.87,1.26,1.26,0,0,1-.87.44Zm2.17,13.87v62.44H345V202.89ZM322.48,221A26.54,26.54,0,1,0,326,234.11,25.69,25.69,0,0,0,322.48,221ZM311,245.17a15.69,15.69,0,1,1,4.56-11.06A15.06,15.06,0,0,1,311,245.17Zm-14.74-14.75a5,5,0,0,1,3.69-1.51,3.47,3.47,0,1,0,0-6.94,12.21,12.21,0,0,0-12.14,12.14,3.47,3.47,0,1,0,6.93,0A5,5,0,0,1,296.25,230.42Zm3.69-41.4-2.61,3.46H345V189Z"/></g></g><g class="cls-2"><g class="cls-2"><path class="cls-1" d="M66.81,96.88a10,10,0,0,1-10,10H10A9.71,9.71,0,0,1,2.92,104,9.67,9.67,0,0,1,0,96.88V10a9.67,9.67,0,0,1,2.92-7.1A9.67,9.67,0,0,1,10,0H56.79a9.67,9.67,0,0,1,7.1,2.92A9.67,9.67,0,0,1,66.81,10Zm-10-85.61a1.21,1.21,0,0,0-.42-.83,1.19,1.19,0,0,0-.83-.42H11.27a1.21,1.21,0,0,0-.83.42,1.21,1.21,0,0,0-.42.83V95.62a1.21,1.21,0,0,0,.42.84,1.21,1.21,0,0,0,.83.42H55.54a1.19,1.19,0,0,0,.83-.42,1.21,1.21,0,0,0,.42-.84ZM38.1,91.55a6.53,6.53,0,1,1,2-4.7A6.38,6.38,0,0,1,38.1,91.55Z"/></g></g><g class="cls-2"><g class="cls-2"><path class="cls-1" d="M114.47,192.48a10.38,10.38,0,0,1,10.41,10.41v62.44a10.36,10.36,0,0,1-10.41,10.4h-2.6a10,10,0,0,1-7.37-3L83.25,251.45v13.88a10.36,10.36,0,0,1-10.41,10.4H10.41a10,10,0,0,1-7.37-3,10,10,0,0,1-3-7.37V202.89a10,10,0,0,1,3-7.37,10,10,0,0,1,7.37-3H72.84a10.38,10.38,0,0,1,10.41,10.41v13.88l21.25-21.25a10,10,0,0,1,7.37-3ZM72.84,265.33V202.89H10.41v62.44Zm41.63,0V202.89h-2.6L83.25,231.51v5.2l28.62,28.62Z"/></g></g></g></g></svg>