<?xml version="1.0" encoding="utf-8"?>
<!-- Generator: Adobe Illustrator 22.1.0, SVG Export Plug-In . SVG Version: 6.00 Build 0)  -->
<svg version="1.1" id="Layer_1" xmlns="http://www.w3.org/2000/svg" xmlns:xlink="http://www.w3.org/1999/xlink" x="0px" y="0px"
	 viewBox="0 0 70 113" style="enable-background:new 0 0 70 113;" xml:space="preserve">
<style type="text/css">
	.st0{enable-background:new    ;}
	.st1{fill:#ACC924;}
</style>
<g class="st0">
	<path class="st1" d="M69.4,101.5c0,2.9-1,5.3-3,7.4s-4.5,3-7.4,3H10.4c-2.9,0-5.3-1-7.4-3s-3-4.5-3-7.4V11.3c0-2.9,1-5.3,3-7.4
		s4.5-3,7.4-3H59c2.9,0,5.3,1,7.4,3s3,4.5,3,7.4V101.5z M59,12.6c0-0.3-0.1-0.6-0.4-0.9s-0.6-0.4-0.9-0.4h-46
		c-0.3,0-0.6,0.1-0.9,0.4s-0.4,0.6-0.4,0.9v87.6c0,0.3,0.1,0.6,0.4,0.9s0.6,0.4,0.9,0.4h46c0.3,0,0.6-0.1,0.9-0.4s0.4-0.6,0.4-0.9
		V12.6z M39.6,95.9c-1.4,1.4-3,2.1-4.9,2.1s-3.5-0.7-4.9-2.1s-2.1-3-2.1-4.9s0.7-3.5,2.1-4.9s3-2.1,4.9-2.1s3.5,0.7,4.9,2.1
		s2.1,3,2.1,4.9S40.9,94.6,39.6,95.9z"/>
</g>
</svg>
