<?xml version="1.0" encoding="utf-8"?>
<!-- Generator: Adobe Illustrator 22.1.0, SVG Export Plug-In . SVG Version: 6.00 Build 0)  -->
<svg version="1.1" id="Layer_1" xmlns="http://www.w3.org/2000/svg" xmlns:xlink="http://www.w3.org/1999/xlink" x="0px" y="0px"
	 viewBox="0 0 112 111" style="enable-background:new 0 0 112 111;" xml:space="preserve">
<style type="text/css">
	.st0{enable-background:new    ;}
	.st1{fill:#ACC924;}
</style>
<g class="st0">
	<path class="st1" d="M111,93.5c0,2.9-1,5.3-3,7.4s-4.5,3-7.4,3H10.4c-2.9,0-5.3-1-7.4-3s-3-4.5-3-7.4V31.1c0-2.9,1-5.3,3-7.4
		s4.5-3,7.4-3h29.5l7.4-9.8c2-2.7,4.8-4.1,8.2-4.1h45.1c2.9,0,5.3,1,7.4,3s3,4.5,3,7.4V93.5z M8.2,17.2c-0.3,0-0.6-0.1-0.9-0.4
		s-0.4-0.6-0.4-0.9V8.1c0-0.3,0.1-0.6,0.4-0.9s0.6-0.4,0.9-0.4h25.1c0.3,0,0.6,0.1,0.9,0.4s0.4,0.6,0.4,0.9v7.8
		c0,0.3-0.1,0.6-0.4,0.9s-0.6,0.4-0.9,0.4H8.2z M10.4,31.1v62.4h90.2V31.1H10.4z M78,49.2c-2.3-4-5.5-7.1-9.4-9.4s-8.3-3.5-13.1-3.5
		s-9.1,1.2-13.1,3.5s-7.1,5.5-9.4,9.4s-3.5,8.3-3.5,13.1s1.2,9.1,3.5,13.1s5.5,7.1,9.4,9.4s8.3,3.5,13.1,3.5s9.1-1.2,13.1-3.5
		s7.1-5.5,9.4-9.4s3.5-8.3,3.5-13.1S80.4,53.2,78,49.2z M66.6,73.4c-3,3-6.7,4.6-11.1,4.6s-8-1.5-11.1-4.6s-4.6-6.7-4.6-11.1
		s1.5-8,4.6-11.1s6.7-4.6,11.1-4.6s8,1.5,11.1,4.6s4.6,6.7,4.6,11.1S69.6,70.3,66.6,73.4z M51.8,58.6c1-1,2.2-1.5,3.7-1.5
		c1,0,1.8-0.3,2.5-1s1-1.5,1-2.5s-0.3-1.8-1-2.5s-1.5-1-2.5-1c-3.3,0-6.2,1.2-8.6,3.6s-3.6,5.2-3.6,8.6c0,1,0.3,1.8,1,2.5
		s1.5,1,2.5,1s1.8-0.3,2.5-1s1-1.5,1-2.5C50.3,60.9,50.8,59.6,51.8,58.6z M55.5,17.2l-2.6,3.5h47.7v-3.5H55.5z"/>
</g>
</svg>
