<svg xmlns="http://www.w3.org/2000/svg" viewBox="405 1182.982 109.414 108.982"><defs><style>.a{fill:#00adef;}</style></defs><g transform="translate(402 1180.982)"><path class="a" d="M152.832,144.269a33.854,33.854,0,0,1,0-47.9l4.173-4.173a2.6,2.6,0,0,0,0-3.676l-4.887-4.887a2.6,2.6,0,0,0-3.676,0l-4.173,4.173a33.854,33.854,0,0,1-47.9,0L92.2,83.637a2.6,2.6,0,0,0-3.676,0l-4.887,4.887a2.6,2.6,0,0,0,0,3.676l4.173,4.173a33.854,33.854,0,0,1,0,47.9l-4.173,4.173a2.6,2.6,0,0,0,0,3.676l4.887,4.887a2.6,2.6,0,0,0,3.676,0l4.173-4.173a33.854,33.854,0,0,1,47.9,0l4.173,4.173a2.6,2.6,0,0,0,3.676,0l4.887-4.887a2.6,2.6,0,0,0,0-3.676Zm-33.495-16.607a8.541,8.541,0,1,1,8.541-8.541A8.545,8.545,0,0,1,119.337,127.662Z" transform="translate(-62.603 -63.387)"/><path class="a" d="M30.981,50.371A33.159,33.159,0,0,0,27.283,42,15.677,15.677,0,1,1,43,26.326c0,.259,0,.519-.022.778a33.447,33.447,0,0,0,8.3,3.46,24.913,24.913,0,0,0,.368-4.238A24.326,24.326,0,1,0,27.326,50.652,22.535,22.535,0,0,0,30.981,50.371Z" transform="translate(0 0)"/><path class="a" d="M302.672,281.281a33.155,33.155,0,0,0,3.7,8.368,15.677,15.677,0,1,1-15.72,15.677c0-.259,0-.519.022-.778a33.448,33.448,0,0,0-8.3-3.46,24.913,24.913,0,0,0-.368,4.238A24.326,24.326,0,1,0,306.326,281,22.538,22.538,0,0,0,302.672,281.281Z" transform="translate(-218.671 -218.671)"/><path class="a" d="M51.371,301.672a33.157,33.157,0,0,0-8.368,3.7,15.677,15.677,0,1,1-15.677-15.72c.259,0,.519,0,.778.022a33.448,33.448,0,0,0,3.46-8.3A24.91,24.91,0,0,0,27.326,281a24.326,24.326,0,1,0,24.326,24.326A22.534,22.534,0,0,0,51.371,301.672Z" transform="translate(0 -218.671)"/><path class="a" d="M284.281,29.981a33.158,33.158,0,0,0,8.368-3.7A15.677,15.677,0,1,1,308.326,42c-.259,0-.519,0-.778-.022a33.45,33.45,0,0,0-3.46,8.3,24.912,24.912,0,0,0,4.238.368A24.326,24.326,0,1,0,284,26.326,22.535,22.535,0,0,0,284.281,29.981Z" transform="translate(-220.238 0)"/></g></svg>